<svg version="1.1" id="Layer_1" xmlns="http://www.w3.org/2000/svg" xmlns:xlink="http://www.w3.org/1999/xlink" x="0px" y="0px"
	 width="100%" viewBox="0 0 1024 624" enable-background="new 0 0 1024 624" xml:space="preserve">
<path fill="#000000" opacity="1.000000" stroke="none" 
	d="
M673.337646,483.989746 
	C674.397644,499.946930 669.105957,512.807312 656.312988,521.584106 
	C647.601318,527.560913 638.178772,532.638062 628.663635,537.275452 
	C614.208557,544.320374 600.918457,553.403198 586.520386,560.524902 
	C578.086731,564.696411 569.618164,568.929199 561.695374,573.967834 
	C552.172546,580.024170 542.069336,584.984253 532.058289,589.984436 
	C516.989075,597.511108 501.856781,595.843750 487.058044,587.753296 
	C465.564667,576.003052 444.090790,564.207458 422.560333,552.526917 
	C406.692657,543.918518 390.645355,535.613586 374.950775,526.702942 
	C364.756714,520.915222 355.788849,513.290710 352.034821,501.475403 
	C350.409698,496.360504 348.563538,491.311829 348.585052,485.670837 
	C348.745697,443.514648 348.444122,401.355469 348.833954,359.202271 
	C348.934937,348.284454 353.341644,338.555786 360.562531,329.894684 
	C367.387878,321.708008 377.029999,318.422058 385.659454,313.395081 
	C398.369476,305.991028 411.347198,299.041962 424.276642,292.020111 
	C447.340668,279.494293 470.263489,266.687042 493.622498,254.734512 
	C506.317688,248.238510 519.617981,249.154007 532.245239,255.985977 
	C553.851379,267.675995 575.408142,279.457367 596.968689,291.231384 
	C614.036682,300.552063 630.893799,310.282257 648.205383,319.124146 
	C657.957092,324.104828 665.278564,330.925812 669.919861,340.676971 
	C671.834961,344.700562 673.238403,348.870392 673.234680,353.524811 
	C673.199524,396.847198 673.286011,440.169678 673.337646,483.989746 
M519.345398,565.477295 
	C519.349060,568.476379 519.364685,571.475586 519.353210,574.474609 
	C519.341187,577.608337 520.914429,578.394775 523.511963,577.056152 
	C526.738281,575.393494 529.822266,573.457336 533.008423,571.713867 
	C552.839355,560.862183 572.668274,550.006714 592.534302,539.219604 
	C595.608948,537.550110 596.899780,535.440247 596.869812,531.733948 
	C596.678345,508.069611 596.701904,484.402679 596.825195,460.737488 
	C596.845398,456.856232 595.916870,454.982971 591.612488,454.845154 
	C571.297424,454.194824 550.990967,453.478363 530.676819,454.827515 
	C528.519165,454.970795 526.443909,454.622803 524.297424,454.051483 
	C519.414429,452.751923 518.019958,449.598999 518.708984,445.056000 
	C519.378967,440.638275 522.532104,439.666382 526.378784,439.668274 
	C549.211121,439.679565 572.044006,439.578552 594.875549,439.715240 
	C605.324097,439.777832 611.333435,446.161316 611.338745,456.633606 
	C611.349915,478.799591 611.324219,500.965576 611.362061,523.131531 
	C611.370422,528.023621 612.253479,528.552185 616.016785,526.467834 
	C625.105225,521.434082 634.148376,516.310120 643.356689,511.503876 
	C651.991516,506.996948 658.463318,500.661530 658.520935,490.553192 
	C658.778320,445.389404 658.736511,400.222870 658.536377,355.058533 
	C658.503418,347.615051 655.052307,341.218994 648.472900,337.271484 
	C639.832458,332.087433 631.008484,327.201416 622.173706,322.350800 
	C605.517639,313.206146 588.676331,304.392365 572.141418,295.035675 
	C558.468872,287.298767 544.079407,280.861938 530.899963,272.248962 
	C518.082886,263.872803 505.782837,263.992981 492.534912,272.271271 
	C478.412537,281.096008 463.339447,288.393982 448.725250,296.438232 
	C425.873932,309.016541 403.284119,322.095276 380.133362,334.093353 
	C368.811768,339.960846 364.392517,348.987427 364.321259,360.600067 
	C364.065582,402.263947 364.008667,443.931183 364.271637,485.594666 
	C364.345215,497.257385 369.112579,506.746277 380.616302,511.749329 
	C383.933533,513.192017 386.914520,515.389954 390.170593,516.996582 
	C393.320007,518.550598 396.110901,520.998108 399.727966,521.453552 
	C401.467255,519.304688 400.703552,517.056519 400.830048,514.972351 
	C401.684326,500.894836 399.777802,486.812408 402.419464,472.665192 
	C405.050110,458.576996 422.802551,438.407318 440.858002,439.513947 
	C453.808380,440.307648 466.847382,439.705536 479.846252,439.630402 
	C484.217621,439.605133 488.341644,440.379120 492.506195,441.774323 
	C507.761078,446.885010 519.088562,464.359283 519.234070,478.987640 
	C519.517578,507.484009 519.334412,535.985046 519.345398,565.477295 
M476.301819,563.958923 
	C485.565948,568.605103 493.976837,574.986145 504.361877,578.699829 
	C504.521912,576.727722 504.669342,575.755005 504.669830,574.782227 
	C504.686005,542.622498 504.855988,510.461487 504.602295,478.303772 
	C504.512238,466.890259 492.763885,455.479553 482.404541,455.295441 
	C469.248138,455.061646 456.086395,454.977692 442.928772,455.075592 
	C439.855835,455.098480 436.732147,455.015839 433.665436,456.471039 
	C421.439728,462.272247 415.459381,471.875946 415.420319,485.282135 
	C415.383972,497.768524 415.723877,510.264740 415.313873,522.737427 
	C415.124146,528.509216 416.073853,532.569519 422.179840,534.500427 
	C425.107574,535.426331 427.672882,537.483093 430.421631,538.992615 
	C445.464813,547.253906 460.514008,555.504333 476.301819,563.958923 
z"/>
<path fill="#000000" opacity="1.000000" stroke="none" 
	d="
M420.657501,381.913940 
	C422.348969,366.946777 431.291046,357.753265 443.254395,350.813171 
	C453.531097,344.851562 464.558960,344.029633 475.344025,348.254486 
	C489.439972,353.776306 503.991333,368.978394 504.322693,386.812653 
	C504.675293,405.789276 494.866150,418.118622 480.029572,426.475647 
	C472.990051,430.440857 464.313721,432.141449 454.789154,429.896881 
	C437.688202,425.866882 427.214264,415.569672 421.273804,400.166138 
	C419.200745,394.790741 419.983459,388.340454 420.657501,381.913940 
M488.674622,388.491150 
	C488.593231,386.668610 488.862671,384.745819 488.374939,383.039429 
	C484.481079,369.417145 471.275085,357.537140 453.357086,363.349365 
	C444.858704,366.106079 436.009674,375.884583 435.523987,384.726288 
	C434.631805,400.967072 442.810944,413.646698 460.656433,414.308411 
	C476.786407,414.906586 487.356903,405.181183 488.674622,388.491150 
z"/>
<path fill="#000000" opacity="1.000000" stroke="none" 
	d="
M549.179565,358.217651 
	C559.650024,346.586548 574.056274,348.273041 581.918274,361.480835 
	C589.067993,373.492035 595.093323,386.102020 602.085999,398.208038 
	C609.729187,411.440002 604.134460,420.294891 591.796753,426.817108 
	C590.707764,427.392792 589.198364,427.300354 587.883789,427.302856 
	C572.733032,427.331635 557.581055,427.426727 542.431763,427.274506 
	C534.009277,427.189880 521.967285,416.274292 524.257202,406.320953 
	C525.388245,401.404785 528.157227,397.012238 530.577209,392.557312 
	C536.734558,381.222321 542.822937,369.849915 549.179565,358.217651 
M576.833313,382.625427 
	C573.010132,378.511261 571.851807,372.904785 568.833618,368.340088 
	C566.237183,364.413239 563.687622,364.290710 561.420959,368.426971 
	C554.751648,380.596985 548.192688,392.831177 541.838745,405.168121 
	C539.675720,409.367889 541.447327,411.868011 546.162109,411.909271 
	C555.159607,411.988068 564.158325,411.944916 573.156494,411.936005 
	C577.321899,411.931915 581.501038,412.091766 585.648804,411.808319 
	C589.913147,411.516968 590.760925,409.831451 589.029663,406.069763 
	C585.443359,398.277100 581.550232,390.643921 576.833313,382.625427 
z"/>
</svg>