<svg version="1.1" id="Layer_1" xmlns="http://www.w3.org/2000/svg" xmlns:xlink="http://www.w3.org/1999/xlink" x="0px" y="0px"
	 width="100%" viewBox="0 0 544 576" enable-background="new 0 0 544 576" xml:space="preserve">
<path fill="#000000" opacity="1.000000" stroke="none" 
	d="
M21.666756,382.998138 
	C21.668367,318.180634 21.663530,253.862534 21.691774,189.544464 
	C21.693094,186.537720 20.786222,183.132278 24.664497,181.406509 
	C25.189632,181.172806 25.660456,179.824493 25.487267,179.169128 
	C23.930700,173.278915 28.834705,168.818588 28.878687,163.319260 
	C28.894341,161.361618 30.859201,160.801849 31.631805,159.324280 
	C36.089256,150.799744 42.916550,144.112198 49.846752,137.749420 
	C53.667824,134.241226 58.705338,131.594742 63.653782,129.904724 
	C68.856819,128.127762 72.658066,124.269188 77.681305,122.310043 
	C82.932327,120.262047 87.777435,117.189201 92.854889,114.675240 
	C96.973267,112.636131 100.299721,109.439384 104.935860,107.952881 
	C108.684502,106.750923 112.817291,104.706680 115.732086,102.221611 
	C120.811752,97.890823 127.182373,96.115898 132.316589,92.103447 
	C135.548798,89.577469 139.184097,87.754555 143.262009,86.443237 
	C148.164307,84.866814 152.706635,82.059006 157.252579,79.512596 
	C164.092331,75.681297 170.392136,71.094307 177.923462,68.247459 
	C184.264206,65.850655 189.610413,60.934792 195.631760,57.552128 
	C202.831451,53.507511 209.756271,49.014076 217.697830,46.169449 
	C220.241531,45.258316 223.400223,43.780945 226.006165,41.724709 
	C231.648727,37.272457 238.570465,34.778957 244.917023,31.408733 
	C257.358826,24.801743 270.586792,25.255411 283.805695,25.879938 
	C288.656799,26.109127 293.490204,28.264416 297.879456,30.803711 
	C300.794861,32.490353 304.290802,31.674427 307.369751,34.221050 
	C312.676727,38.610485 319.664551,40.669312 325.513611,44.244781 
	C331.704468,48.029213 338.754272,49.949726 344.612091,54.857594 
	C348.251617,57.906898 354.107788,59.618408 358.785461,62.081020 
	C362.728485,64.156860 367.131500,66.315559 370.213379,69.365974 
	C372.928040,72.052979 376.381622,72.477509 379.228210,74.136749 
	C387.921753,79.204117 397.121521,83.344620 405.799500,88.647751 
	C410.352570,91.430145 415.738739,93.749779 420.855469,96.029915 
	C423.819305,97.350685 426.845276,99.555855 429.683014,101.156830 
	C433.920776,103.547668 437.495056,106.891258 442.048004,108.932251 
	C450.553955,112.745285 459.090210,116.627357 466.959290,121.791985 
	C471.837769,124.993820 477.034790,127.634926 482.460632,129.966827 
	C492.665222,134.352493 501.832489,140.774658 508.353394,149.729218 
	C511.784698,154.441071 516.457825,159.224396 517.474915,164.891830 
	C518.421509,170.166504 521.519897,174.569519 521.501526,180.256775 
	C521.266296,253.072083 521.303955,325.888489 521.415771,398.704407 
	C521.426819,405.906738 519.098694,411.938904 516.218506,418.497162 
	C511.902191,428.325500 505.265228,435.597260 497.375183,442.118134 
	C494.619232,444.395844 490.875641,445.455688 488.023407,447.645294 
	C483.988129,450.743073 479.643890,453.235443 475.178467,455.570435 
	C470.141083,458.204529 465.023895,460.687500 460.010437,463.365326 
	C455.650085,465.694275 451.674500,468.686676 447.066833,470.618927 
	C441.634186,472.897156 436.392822,475.785461 431.400818,478.733337 
	C426.908417,481.386200 421.595276,482.678467 417.855774,487.460999 
	C415.122162,490.957123 409.262207,491.970001 404.854675,494.205811 
	C399.271515,497.037964 393.516296,499.461578 388.225891,502.962402 
	C382.361877,506.842834 376.065460,509.997162 369.421478,512.634277 
	C363.281860,515.071228 357.855072,519.274231 352.042999,522.573730 
	C344.557465,526.823303 337.692841,532.046204 329.321075,534.971619 
	C326.874176,535.826660 323.554260,537.444641 320.891357,539.590698 
	C315.506348,543.930725 308.647278,546.247192 302.481964,549.528931 
	C290.693787,555.803711 278.134857,555.606140 265.427917,555.360046 
	C258.364136,555.223206 252.206970,552.381958 245.781265,549.924805 
	C234.767868,545.713501 224.945770,539.258972 214.450531,534.093140 
	C207.655060,530.748352 201.300110,526.270203 194.613159,522.703979 
	C187.938324,519.144226 181.805420,514.711487 174.619919,511.723541 
	C166.539383,508.363434 158.242691,504.395447 151.289627,498.468689 
	C149.188141,496.677429 146.125992,495.262177 143.697388,494.730286 
	C138.001465,493.482819 133.319412,490.197784 128.689682,487.477051 
	C125.000977,485.309235 121.557335,481.964966 117.618774,479.924927 
	C112.445038,477.245056 107.460655,474.149658 101.908257,472.155090 
	C98.780792,471.031647 95.626495,469.554779 92.996780,467.561127 
	C87.142082,463.122528 80.147682,460.819305 74.074257,456.992432 
	C68.425194,453.433014 62.017811,451.587189 56.598457,447.319916 
	C49.589462,441.800995 42.137135,436.775024 36.994217,429.472290 
	C33.727692,424.833984 30.043417,420.463135 28.153646,414.596863 
	C26.766760,410.291656 25.699526,406.221893 25.497181,401.787750 
	C25.464664,401.075226 24.696592,399.746490 24.480942,399.788666 
	C20.697079,400.528656 21.893848,397.490173 21.803072,395.987488 
	C21.552315,391.836578 21.685411,387.662476 21.666756,382.998138 
M60.412212,158.529785 
	C53.711834,165.619598 46.539009,172.310013 46.918949,183.444031 
	C46.996693,185.722214 44.230026,187.778122 44.237186,190.957199 
	C44.386204,257.123352 44.347092,323.289917 44.365448,389.456421 
	C44.365860,390.940033 44.033180,392.929749 44.825649,393.822113 
	C48.874702,398.381287 47.138412,404.601715 50.030712,409.746704 
	C53.651051,416.186798 58.227669,422.428497 64.166519,425.001465 
	C71.123978,428.015686 77.027298,432.572784 83.772942,435.771881 
	C88.504227,438.015625 93.437172,440.249420 97.913864,443.303040 
	C100.507187,445.071991 102.514099,443.247925 102.751900,439.510315 
	C104.301872,415.149139 99.766655,390.654785 105.341560,366.294983 
	C107.377998,357.396637 110.909492,349.822174 116.151711,342.844452 
	C119.040733,338.998993 123.447922,336.269714 126.212036,332.359528 
	C132.944809,322.835236 143.394836,318.622833 153.447083,318.132446 
	C180.548676,316.810364 207.757782,317.686340 234.924194,317.716156 
	C236.242630,317.717590 238.198166,317.463257 238.772369,318.187683 
	C241.776581,321.978119 246.750732,321.116882 250.414795,323.565979 
	C254.420471,326.243469 259.402100,328.200531 262.708191,331.284576 
	C270.024994,338.109894 275.334229,346.668915 278.975708,356.271973 
	C281.622589,363.252136 284.361267,370.020416 284.354004,377.649048 
	C284.307373,426.815521 284.332428,475.982086 284.344788,525.148621 
	C284.346130,530.585083 286.815308,532.638062 290.611023,529.810974 
	C293.591675,527.590881 297.080048,526.445496 300.145050,524.388672 
	C309.313629,518.236145 319.532898,513.639465 329.385193,508.518616 
	C337.501068,504.300262 345.465790,499.829773 353.789001,495.953796 
	C361.274933,492.467682 367.555328,486.681366 375.217133,483.125793 
	C377.549744,482.043243 380.152557,481.000580 382.452026,479.567657 
	C386.885956,476.804688 391.558960,474.417755 395.931519,471.566223 
	C399.544434,469.210083 404.078735,468.548035 403.991089,461.769470 
	C403.499756,423.776367 403.780426,385.773346 403.787567,347.773712 
	C403.789001,340.238708 403.769135,340.161499 396.032928,340.145813 
	C368.533356,340.090027 341.031799,340.264771 313.535339,339.958405 
	C305.971832,339.874146 298.356354,341.381378 290.765808,337.677307 
	C285.178162,334.950623 282.836121,332.593781 283.697754,324.268097 
	C284.150360,319.894470 287.144226,317.652374 292.866364,317.650116 
	C330.532715,317.635345 368.199127,317.635132 405.865417,317.679688 
	C416.289917,317.692017 426.334534,327.875946 426.339722,338.343689 
	C426.357513,374.343597 426.348114,410.343506 426.354126,446.343414 
	C426.354370,447.842560 426.243896,449.366272 426.467834,450.835449 
	C426.871765,453.485504 428.972656,454.287903 430.890839,453.156891 
	C435.063812,450.696289 439.195618,448.094421 443.205322,445.437775 
	C445.372742,444.001740 447.748871,444.511841 449.436340,443.197357 
	C456.685059,437.550537 465.026123,433.714050 472.978241,429.356842 
	C481.722595,424.565613 491.151917,421.038605 495.172119,410.858856 
	C496.906921,406.466125 499.722748,402.529999 499.717102,397.401154 
	C499.641205,328.234772 499.718262,259.068207 499.614868,189.901917 
	C499.607056,184.689926 498.928040,179.677628 497.334595,174.322327 
	C493.850891,162.614380 484.281860,158.280762 475.820374,152.574326 
	C469.016296,147.985718 460.591797,146.329193 454.401398,140.060944 
	C451.066071,136.683655 445.501373,135.528687 440.978607,133.297867 
	C435.969940,130.827347 430.683624,128.743530 426.099152,125.634590 
	C420.576202,121.889229 414.812531,118.331894 408.856293,115.777496 
	C400.881775,112.357521 392.916870,108.887451 385.954407,103.921646 
	C380.051758,99.711716 373.733307,96.544243 367.345642,93.424355 
	C361.255371,90.449699 354.881073,87.818817 349.528442,83.770065 
	C344.911682,80.277939 339.648712,78.078384 334.666809,75.754028 
	C328.393463,72.827133 322.422821,69.361717 316.152618,66.511414 
	C314.058350,65.559418 314.993835,62.958607 312.399200,62.399570 
	C306.972504,61.230347 302.334900,57.829708 297.523895,55.286652 
	C291.871124,52.298645 285.934143,49.791801 280.103241,47.763268 
	C271.698456,44.839275 263.187927,49.331497 254.728485,50.703094 
	C254.573700,50.728191 254.395981,50.819340 254.294571,50.936485 
	C249.693604,56.251842 242.787689,57.985382 237.039398,61.428612 
	C234.534821,62.928852 232.466461,65.104980 229.742477,66.337120 
	C224.626862,68.651077 219.613449,71.221512 214.698853,73.940674 
	C209.966614,76.558952 205.368881,79.357475 200.377182,81.548798 
	C195.921341,83.504883 191.047195,85.454369 187.449402,88.289185 
	C182.622009,92.092827 177.114700,93.772339 171.982712,96.524345 
	C167.374695,98.995369 162.800110,101.772041 158.729248,104.894249 
	C153.302185,109.056587 147.218460,112.165565 141.260391,114.742241 
	C135.938858,117.043648 130.273697,119.374283 125.570419,122.279999 
	C118.770645,126.480942 111.531448,129.748962 104.851967,133.926361 
	C101.592468,135.964905 97.732483,136.098297 94.715431,139.062073 
	C88.147232,145.514282 79.114235,148.220154 71.272148,152.740341 
	C67.905739,154.680725 63.327145,154.593445 60.412212,158.529785 
M124.348236,450.394897 
	C124.416977,454.652710 123.407738,458.443634 129.515182,460.882996 
	C133.689346,462.550171 138.310257,465.000977 142.325638,468.034607 
	C144.711548,469.837128 148.797729,470.957336 151.564423,472.578430 
	C158.280685,476.513641 165.482849,479.483917 172.185104,483.426788 
	C174.194061,484.608612 174.697388,485.656586 175.129929,487.046661 
	C204.473785,501.637604 233.271545,517.107910 262.658875,534.127319 
	C262.658875,530.889343 262.658905,529.098328 262.658875,527.307312 
	C262.657898,476.843597 262.562469,426.379486 262.797821,375.916870 
	C262.822144,370.704285 259.135529,367.051758 258.725586,362.064240 
	C258.618591,360.762756 257.445374,357.553040 255.813828,356.315369 
	C250.515457,352.296051 246.628387,346.349396 240.174728,344.004578 
	C235.836487,342.428345 231.928192,340.015442 226.757141,340.111053 
	C204.282425,340.526581 181.795486,340.404877 159.314392,340.260406 
	C153.947723,340.225952 149.820587,342.595520 145.966751,345.702087 
	C139.544907,350.878784 132.485199,355.301300 129.403778,363.840240 
	C127.480484,369.169891 124.537674,374.323242 124.468048,379.973114 
	C124.182777,403.119629 124.348816,426.271667 124.348236,450.394897 
M335.522217,338.072113 
	C334.793671,338.140259 334.065125,338.208405 333.336578,338.276581 
	C333.347992,338.398682 333.359406,338.520782 333.370819,338.642883 
	C343.431427,338.642883 353.492035,338.642883 363.552643,338.642883 
	C363.551880,338.449554 363.551086,338.256256 363.550323,338.062927 
	C354.462219,338.062927 345.374084,338.062927 335.522217,338.072113 
z"/>
<path fill="#000000" opacity="1.000000" stroke="none" 
	d="
M246.775574,197.808746 
	C250.612167,201.718948 252.189514,206.869476 256.022247,210.371719 
	C256.375824,210.694839 256.912354,211.186203 256.863068,211.526962 
	C256.029114,217.291779 260.992889,221.631454 260.472961,227.493805 
	C259.901215,233.940399 259.657471,240.572784 260.546906,246.946121 
	C261.359436,252.768539 259.032104,257.955994 256.782257,262.064392 
	C251.181549,272.291687 244.602875,282.611725 234.797501,289.178833 
	C226.753342,294.566376 219.157211,302.095734 207.612885,300.677460 
	C204.538055,300.299744 201.159393,303.974792 196.990601,303.359100 
	C188.865326,302.159088 180.961655,300.411102 173.073914,297.954041 
	C160.075043,293.904755 152.016571,283.807617 143.634476,274.554718 
	C135.483353,265.556763 131.111038,254.313995 132.588760,241.515732 
	C133.044357,237.569870 132.920395,233.506805 132.609039,229.532867 
	C131.905762,220.556702 134.656464,211.510178 139.573792,205.402756 
	C145.244110,198.360138 149.531265,189.538803 158.857315,185.021088 
	C163.000580,183.013992 168.685043,181.347977 171.355759,176.386414 
	C171.480331,176.154999 171.921280,176.042862 172.236603,175.972534 
	C183.903305,173.370117 195.976349,170.335434 207.526260,173.292770 
	C214.086914,174.972610 221.870621,175.070770 227.624268,181.494324 
	C230.192322,184.361374 234.660858,187.656891 239.318878,189.242813 
	C243.092819,190.527756 243.755768,195.091629 246.775574,197.808746 
M167.345291,267.153931 
	C172.317017,273.147217 179.651657,276.236115 186.449890,277.198395 
	C195.235855,278.442017 204.958786,280.008179 213.390579,274.589844 
	C216.264542,272.743011 219.689880,272.212097 222.423782,270.302612 
	C231.381973,264.045776 234.949844,254.258926 237.326233,244.463745 
	C239.225449,236.635345 238.353027,228.081940 233.956741,220.993591 
	C232.333527,218.376419 232.483154,215.146713 229.801880,212.881271 
	C224.601166,208.487091 221.214981,202.250732 213.600296,200.446854 
	C207.495697,199.000732 201.839066,195.889496 195.354462,195.243057 
	C191.763412,194.885086 189.790390,197.878723 186.884079,198.137115 
	C179.290802,198.812210 173.361206,202.442749 168.077591,207.562912 
	C159.850830,215.535156 155.068817,224.999908 155.349182,236.682602 
	C155.480469,242.152771 155.225723,247.389633 158.006729,252.769501 
	C160.582428,257.752136 162.214417,263.069855 167.345291,267.153931 
z"/>
<path fill="#000000" opacity="1.000000" stroke="none" 
	d="
M383.203400,198.735306 
	C384.914246,204.025589 388.652466,207.803482 390.563751,212.671265 
	C392.680847,218.063110 395.480377,223.228653 398.402832,228.248123 
	C400.397919,231.674774 401.456055,235.476135 403.953064,238.763428 
	C409.365021,245.888260 414.268646,253.654419 416.669220,262.218750 
	C418.108398,267.353180 417.727478,273.014557 415.459930,278.952423 
	C413.033783,285.305695 408.252716,288.437317 403.863861,291.813019 
	C399.926270,294.841644 395.478271,297.742157 389.256287,297.567627 
	C367.113525,296.946533 344.929352,296.881866 322.789581,297.553802 
	C314.627441,297.801483 309.243652,293.677643 303.346313,289.727295 
	C298.614807,286.557861 296.895355,280.909576 293.304657,276.723846 
	C291.329224,274.421051 292.672852,270.264221 292.714874,266.950836 
	C292.752441,263.986511 291.845978,260.910431 295.602448,258.740082 
	C297.861847,257.434692 297.597809,253.714035 298.991180,251.121429 
	C304.225037,241.382843 309.305328,231.519470 314.192108,221.596771 
	C317.875702,214.117142 323.113892,207.381424 325.920410,199.708267 
	C329.208038,190.719696 335.190063,185.315445 343.126923,181.189270 
	C343.699921,180.891373 344.177246,180.121933 344.721405,180.098938 
	C353.597260,179.723785 362.370453,178.196548 370.601929,184.222931 
	C375.995270,188.171478 379.344086,193.329208 383.203400,198.735306 
M343.693604,216.991409 
	C343.102966,218.331665 343.503265,219.915710 342.298004,221.158112 
	C337.037445,226.580765 335.342865,234.119202 330.871857,240.238785 
	C325.932587,246.999313 323.465759,255.638412 319.124786,263.081787 
	C315.456329,269.371979 318.584137,274.648773 325.796906,274.651123 
	C338.296478,274.655212 350.796051,274.653076 363.295624,274.653259 
	C371.462006,274.653381 379.629242,274.721313 387.794464,274.624359 
	C391.971649,274.574799 395.896057,270.300720 394.328094,267.435394 
	C392.031769,263.239075 390.034119,258.971588 388.089661,254.596619 
	C384.230591,245.913834 378.531677,238.062851 374.383514,229.485840 
	C373.159546,226.955002 370.763824,226.104202 369.633850,223.580872 
	C366.937653,217.560043 365.034943,211.121216 360.820099,205.782776 
	C359.133575,203.646667 357.873566,200.968536 354.803802,201.497513 
	C351.920685,201.994293 350.458771,204.473953 349.227325,207.084244 
	C347.718597,210.282242 345.833832,213.302841 343.693604,216.991409 
z"/>
</svg>